<svg width="550" height="530" viewBox="0 0 550 530" fill="none" xmlns="http://www.w3.org/2000/svg">
<path d="M144.259 239.196C143.048 239.196 142.064 240.401 142.064 241.883V263.379C142.064 264.86 143.048 266.066 144.259 266.066C145.47 266.066 146.454 264.86 146.454 263.379V241.883C146.454 240.401 145.47 239.196 144.259 239.196Z" fill="#3F3D56"/>
<path d="M393.958 0H196.49C174.097 0 155.944 22.2195 155.944 49.6286V476.735C155.944 504.144 174.097 526.363 196.49 526.363H393.958C416.351 526.363 434.504 504.144 434.504 476.735V49.6286C434.504 22.2195 416.351 0 393.958 0V0Z" fill="white"/>
<path d="M393.958 530H196.49C173.604 530 154.984 507.21 154.984 479.197V52.0911C154.984 24.078 173.604 1.28723 196.49 1.28723H393.958C416.844 1.28723 435.464 24.0779 435.464 52.0911V479.197C435.464 507.21 416.844 530 393.958 530ZM196.49 3.63764C174.662 3.63764 156.904 25.3737 156.904 52.0911V479.197C156.904 505.914 174.662 527.65 196.49 527.65H393.958C415.786 527.65 433.544 505.914 433.544 479.197V52.0911C433.544 25.3736 415.786 3.63764 393.958 3.63764H196.49Z" fill="#3F3D56"/>
<path d="M408.262 104.072H328.89C325.524 104.072 322.785 100.719 322.785 96.5984C322.785 92.4778 325.524 89.1252 328.89 89.1252H408.262C411.628 89.1252 414.367 92.4778 414.367 96.5984C414.367 100.719 411.628 104.072 408.262 104.072Z" fill="#E6E6E6"/>
<path d="M333.801 162.84H256.648C254.703 162.84 253.12 160.903 253.12 158.522C253.12 156.141 254.703 154.205 256.648 154.205H333.801C335.746 154.205 337.328 156.141 337.328 158.522C337.328 160.903 335.746 162.84 333.801 162.84V162.84Z" fill="#F50004"/>
<path d="M224.843 18.5131H180.615C180.5 18.5131 180.407 18.627 180.407 18.7677V25.2642C180.407 25.4048 180.5 25.5188 180.615 25.5188H224.843C224.958 25.5188 225.051 25.4048 225.051 25.2642V18.7677C225.051 18.627 224.958 18.5131 224.843 18.5131Z" fill="#E6E6E6"/>
<path d="M373.122 25.5188C375.651 25.5188 377.701 23.0096 377.701 19.9143C377.701 16.8189 375.651 14.3097 373.122 14.3097C370.593 14.3097 368.543 16.8189 368.543 19.9143C368.543 23.0096 370.593 25.5188 373.122 25.5188Z" fill="#E6E6E6"/>
<path d="M385.714 25.5188C388.243 25.5188 390.293 23.0096 390.293 19.9143C390.293 16.8189 388.243 14.3097 385.714 14.3097C383.185 14.3097 381.135 16.8189 381.135 19.9143C381.135 23.0096 383.185 25.5188 385.714 25.5188Z" fill="#E6E6E6"/>
<path d="M398.306 25.5188C400.834 25.5188 402.884 23.0096 402.884 19.9143C402.884 16.8189 400.834 14.3097 398.306 14.3097C395.777 14.3097 393.727 16.8189 393.727 19.9143C393.727 23.0096 395.777 25.5188 398.306 25.5188Z" fill="#E6E6E6"/>
<path d="M196.01 185.953C196.01 186.729 196.519 187.352 197.152 187.352H393.296C393.93 187.352 394.438 186.729 394.438 185.953C394.438 185.177 393.93 184.555 393.296 184.555H197.152C196.519 184.555 196.01 185.177 196.01 185.953Z" fill="#3F3D56"/>
<path d="M351.571 383.748C351.571 384.524 352.08 385.147 352.714 385.147H548.857C549.491 385.147 550 384.524 550 383.748C550 382.973 549.491 382.35 548.857 382.35H352.714C352.08 382.35 351.571 382.973 351.571 383.748Z" fill="#3F3D56"/>
<path d="M374.487 295.87H256.777C254.832 295.87 253.25 293.933 253.25 291.552C253.25 289.172 254.832 287.235 256.777 287.235H374.487C376.432 287.235 378.014 289.172 378.014 291.552C378.014 293.933 376.432 295.87 374.487 295.87V295.87Z" fill="#F50004"/>
<path d="M221.076 301.596C225.848 301.596 229.717 296.86 229.717 291.019C229.717 285.178 225.848 280.442 221.076 280.442C216.303 280.442 212.434 285.178 212.434 291.019C212.434 296.86 216.303 301.596 221.076 301.596Z" fill="#F50004"/>
<path d="M220.115 308.647V306.297C227.262 306.297 233.077 299.179 233.077 290.431C233.077 281.683 227.262 274.566 220.115 274.566V272.216C228.321 272.216 234.997 280.387 234.997 290.431C234.997 300.476 228.321 308.647 220.115 308.647V308.647Z" fill="#3F3D56"/>
<path d="M117.195 248.364C120.72 243.973 125.428 242.64 127.71 245.387C129.993 248.133 128.985 253.917 125.459 258.309C124.069 260.087 122.353 261.432 120.452 262.231L105.325 280.603L98.4329 271.731L114.077 254.561C114.697 252.22 115.766 250.095 117.195 248.364H117.195Z" fill="#FFB6B6"/>
<path d="M68.8178 233.199L84.6778 276.265L110.004 259.485L119.067 265.373C119.067 265.373 98.364 307.739 84.1884 302.916C70.0128 298.093 44.8405 254.363 49.3759 240.867C53.9113 227.371 68.8178 233.199 68.8178 233.199V233.199Z" fill="#E6E6E6"/>
<path d="M0 528.558C0 529.1 0.355398 529.535 0.797964 529.535H489.804C490.247 529.535 490.602 529.1 490.602 528.558C490.602 528.017 490.247 527.582 489.804 527.582H0.797964C0.355398 527.582 0 528.017 0 528.558Z" fill="#3F3D56"/>
<path d="M146.39 318.014C170.424 318.014 189.907 294.669 189.907 265.872C189.907 237.075 170.424 213.73 146.39 213.73C122.357 213.73 102.874 237.075 102.874 265.872C102.874 294.669 122.357 318.014 146.39 318.014Z" fill="#F50004"/>
<path d="M61.8634 520.216L73.4279 520.215L78.9292 465.616L61.8611 465.618L61.8634 520.216Z" fill="#FFB6B6"/>
<path d="M101.485 519.895C101.845 520.637 102.035 523.033 102.035 523.896C102.035 526.549 100.278 528.7 98.1098 528.7H62.296C60.8172 528.7 59.6183 527.233 59.6183 525.423V523.598C59.6183 523.598 57.8466 518.113 61.4942 511.352C61.4942 511.352 66.0276 516.646 72.8017 508.354L74.7994 503.925L89.2594 516.869L97.2744 518.076C99.028 518.341 100.583 518.036 101.485 519.895H101.485V519.895Z" fill="#2F2E41"/>
<path d="M70.6142 235.962L70.8482 216.87L61.2295 209.531L50.7703 225.191L70.6142 235.962Z" fill="#FFB6B6"/>
<path opacity="0.1" d="M70.6143 235.962L71.2369 217.346L61.2295 209.531L64.6295 232.57L70.6143 235.962Z" fill="black"/>
<path d="M93.9739 362.207L78.0385 494.936H58.0454L60.7039 419.171L62.1031 379.333L58.0454 360.37C58.0454 360.37 56.1954 356.155 54.6368 351.046C52.88 345.28 51.4925 338.368 53.5524 335.09C54.3103 333.882 56.2809 332.987 58.9588 332.321C60.5951 331.912 62.4996 331.593 64.5556 331.346C76.3789 329.914 93.1966 330.808 93.1966 330.808L93.6241 348.077L93.8612 357.721L93.9739 362.207L93.9739 362.207Z" fill="#2F2E41"/>
<path d="M41.4922 513.725L52.9338 515.782L64.8649 462.744L47.9782 459.707L41.4922 513.725Z" fill="#FFB6B6"/>
<path d="M80.7303 520.461C80.9983 521.26 80.9016 523.664 80.799 524.518C80.4837 527.143 78.4896 528.958 76.3448 528.572L40.9119 522.196C39.4488 521.933 38.4371 520.267 38.6522 518.477L38.8691 516.671C38.8691 516.671 37.7681 510.929 42.1803 504.889C42.1803 504.889 46.0364 510.934 53.7238 503.936L56.2266 499.91L68.9946 515.291L76.7809 517.913C78.4844 518.486 80.0587 518.461 80.7302 520.461H80.7303L80.7303 520.461Z" fill="#2F2E41"/>
<path d="M94.2247 340.071L92.039 363.111L80.1194 411.662L60.4977 491.593L40.7194 488.035L58.4702 374.385L56.7126 354.897C56.7126 354.897 56.1402 352.96 55.4841 350.124C54.1817 344.513 52.5483 335.377 54.3453 330.716C54.588 330.083 54.8926 329.533 55.2694 329.088C55.9762 328.249 57.4128 327.739 59.3375 327.469C67.3823 326.356 83.95 329.539 91.3222 331.102L94.2247 340.071V340.071Z" fill="#2F2E41"/>
<path d="M52.9694 221.152L72.4029 232.57C72.4029 232.57 93.0023 307.26 93.0023 311.066C93.0023 314.871 98.8323 317.25 95.3343 321.532C91.8363 325.813 101.845 329.439 96.452 332.859C91.0589 336.279 57.4162 354.987 53.6753 353.3C43.3576 348.647 54.1125 331.55 54.1125 331.55C54.1125 331.55 46.3621 323.91 47.5281 320.104C48.6941 316.299 40.532 243.511 40.532 243.511L52.9694 221.152H52.9694Z" fill="#E6E6E6"/>
<path d="M112.185 286.965C117.008 285.221 121.653 286.854 122.559 290.611C123.465 294.368 120.29 298.826 115.465 300.57C113.546 301.299 111.511 301.455 109.533 301.024L89.0214 308.098L86.5145 296.246L107.001 290.531C108.472 288.853 110.249 287.63 112.185 286.965H112.185Z" fill="#FFB6B6"/>
<path d="M75.9056 244.961L72.6908 292.036L101.487 292.415L107.076 302.948C107.076 302.948 72.173 327.685 61.6926 315.045C51.2123 302.406 46.549 249.217 55.867 240.113C65.185 231.008 75.9056 244.961 75.9056 244.961V244.961Z" fill="#E6E6E6"/>
<path d="M70.2091 222.409C79.4033 222.409 86.8566 213.286 86.8566 202.032C86.8566 190.779 79.4033 181.656 70.2091 181.656C61.015 181.656 53.5616 190.779 53.5616 202.032C53.5616 213.286 61.015 222.409 70.2091 222.409Z" fill="#FFB6B6"/>
<path d="M61.23 202.113C61.23 202.113 63.8516 196.818 65.2936 194.09C66.7355 191.363 66.7355 187.367 66.7355 187.367C66.7355 187.367 80.1059 187.031 84.5627 191.684C89.0195 196.337 92.1655 179.169 87.8398 173.232C87.8398 173.232 86.0046 175.8 86.3979 176.762L86.7911 177.725C86.7911 177.725 84.5627 166.815 78.1397 164.729C78.1397 164.729 74.5666 166.988 75.5666 168.265C76.5667 169.542 67.9152 160.557 65.2936 165.852C65.2936 165.852 58.8705 165.691 59.657 168.579L59.2637 170.344C59.2637 170.344 53.7583 168.259 53.365 173.232C53.365 173.232 55.3313 173.232 56.3799 174.516C57.4286 175.799 52.5785 179.49 52.5785 179.49C52.5785 179.49 46.942 198.422 54.5448 206.124C54.5448 206.124 54.6103 196.898 57.6252 199.144C60.6401 201.391 61.23 202.113 61.23 202.113V202.113Z" fill="#2F2E41"/>
<path d="M77.0727 214.146L76.4749 216.071L80.9579 216.232L81.2568 214.467L77.0727 214.146Z" fill="#2F2E41"/>
<path d="M81.5557 207.247C81.5557 207.247 74.8311 205.001 70.7964 211.739L69.8998 213.023C69.8998 213.023 61.382 201.31 62.1292 196.978L60.336 197.139L58.5428 208.37C58.5428 208.37 64.2213 220.404 72.1413 220.885C72.1413 220.885 79.7625 223.131 81.4062 219.28C83.05 215.43 85.8801 209.752 85.8801 209.752L81.5557 207.247H81.5557ZM80.3325 217.997H75.8771C74.8311 217.997 72.1413 213.344 72.1413 213.344C73.6356 210.456 78.1187 210.295 78.1187 210.295H82.987L83.3489 212.06L80.3325 217.997H80.3325Z" fill="#2F2E41"/>
<path d="M406.069 521.767L398.759 519.833L401.374 484.403L412.162 487.257L406.069 521.767Z" fill="#A0616A"/>
<path d="M381.061 514.941C380.751 515.35 380.363 516.832 380.267 517.378C379.971 519.055 380.842 520.708 382.212 521.07L404.848 527.057C405.783 527.304 406.705 526.577 406.907 525.433L407.11 524.279C407.11 524.279 408.842 521.108 407.291 516.225C407.291 516.225 403.835 518.814 400.478 512.441L399.71 509.307L389.126 515.072L383.925 514.495C382.787 514.369 381.839 513.916 381.061 514.941L381.061 514.941V514.941Z" fill="#2F2E41"/>
<path d="M392.994 519.056L386.896 513.758L400.689 482.445L409.689 490.265L392.994 519.056Z" fill="#A0616A"/>
<path d="M372.198 500.737C371.781 500.963 370.949 502.14 370.685 502.595C369.873 503.994 370.142 505.933 371.286 506.926L390.172 523.332C390.952 524.01 392.033 523.785 392.586 522.83L393.144 521.868C393.144 521.868 395.756 519.787 395.899 514.551C395.899 514.551 391.89 515.266 390.853 507.79L391.154 504.539L379.57 504.741L374.975 501.706C373.969 501.042 373.243 500.169 372.198 500.737L372.198 500.737V500.737Z" fill="#2F2E41"/>
<path d="M480.844 343.891C480.844 343.891 492.216 362.815 469.472 384.091L423.038 365.929L439.622 323.592L454.31 313.733L480.844 343.891V343.891Z" fill="#2F2E41"/>
<path d="M423.038 365.929L405.033 408.846L393.661 498.16L407.876 499.319L422.09 414.646L447.203 368.829L429.672 358.97" fill="#2F2E41"/>
<path d="M469.472 370.61V384.091L437.253 427.405C437.253 427.405 437.253 459.882 424.933 474.961L410.719 501.639L398.4 493.52L416.405 415.806L448.624 364.769L469.472 370.61V370.61Z" fill="#2F2E41"/>
<path d="M446.577 236.963L451.463 265.287L470.09 259.715C470.09 259.715 460.882 236.273 462.715 226.987L446.577 236.963Z" fill="#A0616A"/>
<path opacity="0.1" d="M446.577 236.963L451.463 265.287L470.09 259.715C470.09 259.715 460.882 236.273 462.715 226.987L446.577 236.963Z" fill="black"/>
<path d="M464.26 241.238L450.046 249.358C450.046 249.358 442.733 254.828 442.599 258.473C442.465 262.117 443.412 279.515 443.412 279.515C443.412 279.515 437.727 286.475 441.517 300.394L439.622 323.592L482.265 351.43L478.475 302.714L480.37 257.477L464.26 241.238V241.238Z" fill="#E6E6E6"/>
<path d="M477.02 373.239C475.355 377.913 472.036 380.65 469.606 379.353C467.176 378.056 466.556 373.217 468.221 368.541C468.866 366.662 469.868 365 471.145 363.693L478.401 343.998L485.879 348.363L477.932 367.315C478.019 369.35 477.706 371.382 477.02 373.239V373.239Z" fill="#A0616A"/>
<path d="M469.472 260.377C469.472 260.377 479.896 252.257 483.687 261.537C487.477 270.816 496.006 318.373 496.006 318.373L483.687 363.609L472.315 357.81L482.265 309.125L469.472 260.377V260.377Z" fill="#E6E6E6"/>
<path d="M416.047 365.937C413.093 369.532 409.183 370.58 407.315 368.278C405.446 365.977 406.326 361.198 409.281 357.602C410.446 356.146 411.878 355.053 413.459 354.413L426.132 339.376L431.771 346.806L418.678 360.841C418.146 362.773 417.244 364.52 416.047 365.937V365.937Z" fill="#A0616A"/>
<path d="M443 257.61C443 257.61 461.173 256.7 461.904 267.036C462.635 277.372 450.212 323.491 450.212 323.491L425.144 359.991L416.317 349.472L440.221 308.698L443 257.61V257.61Z" fill="#E6E6E6"/>
<path d="M495.474 380.101L379.266 357.159C377.346 356.78 376.035 354.559 376.345 352.208C376.655 349.858 378.469 348.255 380.39 348.634L496.597 371.576C498.517 371.955 499.827 374.175 499.517 376.525C499.208 378.876 497.394 380.48 495.474 380.101V380.101Z" fill="#F50004"/>
<path d="M344.651 355.988C349.423 355.988 353.292 351.253 353.292 345.411C353.292 339.57 349.423 334.834 344.651 334.834C339.879 334.834 336.01 339.57 336.01 345.411C336.01 351.253 339.879 355.988 344.651 355.988Z" fill="#F50004"/>
<path d="M341.41 362.627L341.716 360.307C348.771 361.7 355.438 355.807 356.576 347.17C357.714 338.534 352.899 330.374 345.844 328.981L346.149 326.661C354.251 328.26 359.778 337.628 358.472 347.544C357.165 357.46 349.511 364.226 341.41 362.627V362.627Z" fill="#3F3D56"/>
<path d="M448.44 242.983C456.344 242.983 462.752 235.14 462.752 225.465C462.752 215.791 456.344 207.948 448.44 207.948C440.536 207.948 434.128 215.791 434.128 225.465C434.128 235.14 440.536 242.983 448.44 242.983Z" fill="#A0616A"/>
<path d="M456.897 225.465C456.897 225.465 447.963 215.539 442.238 219.042C436.513 222.546 433.651 224.881 433.651 224.881C433.651 224.881 428.881 216.123 436.036 208.532C436.036 208.532 421.472 200.743 432.093 188.579C442.715 176.416 452.256 181.087 452.256 181.087C452.256 181.087 465.137 188.094 456.073 202.108C456.073 202.108 469.278 212.359 462.437 229.131C462.437 229.131 461.798 218.458 459.889 221.378C457.981 224.298 456.897 225.465 456.897 225.465V225.465Z" fill="#2F2E41"/>
<path d="M161.342 285.504C155.87 269.039 150.399 252.574 144.928 236.109C144.172 233.835 141.805 233.755 141.068 236.109C135.662 253.371 132.129 271.384 130.431 289.749C130.142 292.877 134.147 292.852 134.434 289.749C135.099 282.562 136.086 275.429 137.352 268.372C141.861 268.662 146.406 268.043 150.756 266.569C152.998 273.315 155.24 280.06 157.481 286.806C158.439 289.689 162.313 288.428 161.342 285.504H161.342ZM138.26 263.528C139.608 256.773 141.225 250.097 143.101 243.529L149.236 261.993C145.642 263.147 141.967 263.661 138.26 263.528V263.528Z" fill="white"/>
<path d="M169.057 289.622C171.279 289.622 173.08 287.417 173.08 284.697C173.08 281.978 171.279 279.773 169.057 279.773C166.835 279.773 165.034 281.978 165.034 284.697C165.034 287.417 166.835 289.622 169.057 289.622Z" fill="white"/>
<path d="M126.814 246.123C129.036 246.123 130.837 243.919 130.837 241.199C130.837 238.479 129.036 236.275 126.814 236.275C124.592 236.275 122.791 238.479 122.791 241.199C122.791 243.919 124.592 246.123 126.814 246.123Z" fill="white"/>
</svg>
